
            <svg id="trend-chart" width="660" height="400" title="Stack Overflow Trends Chart" version="1.1" xmlns="http://www.w3.org/2000/svg"><g></g><g class="chart-area" transform="translate(100, 20)"><g transform="translate(0,300)" fill="none" font-size="10" font-family="sans-serif" text-anchor="middle"><path class="domain" stroke="#000" d="M0.5,6V0.5H410.5V6"></path><g class="tick" opacity="1" transform="translate(15.61613144137416,0)"><line stroke="#000" y2="6" x1="0.5" x2="0.5"></line><text fill="#000" y="9" x="0.5" dy="0.71em" style="font-size: 12px;">2009</text></g><g class="tick" opacity="1" transform="translate(52.87030121981579,0)"><line stroke="#000" y2="6" x1="0.5" x2="0.5"></line><text fill="#000" y="9" x="0.5" dy="0.71em" style="font-size: 12px;">2010</text></g><g class="tick" opacity="1" transform="translate(90.12447099825741,0)"><line stroke="#000" y2="6" x1="0.5" x2="0.5"></line><text fill="#000" y="9" x="0.5" dy="0.71em" style="font-size: 12px;">2011</text></g><g class="tick" opacity="1" transform="translate(127.37864077669902,0)"><line stroke="#000" y2="6" x1="0.5" x2="0.5"></line><text fill="#000" y="9" x="0.5" dy="0.71em" style="font-size: 12px;">2012</text></g><g class="tick" opacity="1" transform="translate(164.73487677371173,0)"><line stroke="#000" y2="6" x1="0.5" x2="0.5"></line><text fill="#000" y="9" x="0.5" dy="0.71em" style="font-size: 12px;">2013</text></g><g class="tick" opacity="1" transform="translate(201.98904655215335,0)"><line stroke="#000" y2="6" x1="0.5" x2="0.5"></line><text fill="#000" y="9" x="0.5" dy="0.71em" style="font-size: 12px;">2014</text></g><g class="tick" opacity="1" transform="translate(239.24321633059498,0)"><line stroke="#000" y2="6" x1="0.5" x2="0.5"></line><text fill="#000" y="9" x="0.5" dy="0.71em" style="font-size: 12px;">2015</text></g><g class="tick" opacity="1" transform="translate(276.4973861090366,0)"><line stroke="#000" y2="6" x1="0.5" x2="0.5"></line><text fill="#000" y="9" x="0.5" dy="0.71em" style="font-size: 12px;">2016</text></g><g class="tick" opacity="1" transform="translate(313.8536221060493,0)"><line stroke="#000" y2="6" x1="0.5" x2="0.5"></line><text fill="#000" y="9" x="0.5" dy="0.71em" style="font-size: 12px;">2017</text></g><g class="tick" opacity="1" transform="translate(351.1077918844909,0)"><line stroke="#000" y2="6" x1="0.5" x2="0.5"></line><text fill="#000" y="9" x="0.5" dy="0.71em" style="font-size: 12px;">2018</text></g><g class="tick" opacity="1" transform="translate(388.3619616629326,0)"><line stroke="#000" y2="6" x1="0.5" x2="0.5"></line><text fill="#000" y="9" x="0.5" dy="0.71em" style="font-size: 12px;">2019</text></g></g><g class="grid-lines" transform="translate(0,300)" fill="none" font-size="10" font-family="sans-serif" text-anchor="middle"><path class="domain" stroke="#000" d="M0.5,-300V0.5H410.5V-300"></path><g class="tick" opacity="1" transform="translate(15.61613144137416,0)"><line stroke="#000" y2="-300" x1="0.5" x2="0.5" style="stroke: #ccc; fill: none;"></line></g><g class="tick" opacity="1" transform="translate(52.87030121981579,0)"><line stroke="#000" y2="-300" x1="0.5" x2="0.5" style="stroke: #ccc; fill: none;"></line></g><g class="tick" opacity="1" transform="translate(90.12447099825741,0)"><line stroke="#000" y2="-300" x1="0.5" x2="0.5" style="stroke: #ccc; fill: none;"></line></g><g class="tick" opacity="1" transform="translate(127.37864077669902,0)"><line stroke="#000" y2="-300" x1="0.5" x2="0.5" style="stroke: #ccc; fill: none;"></line></g><g class="tick" opacity="1" transform="translate(164.73487677371173,0)"><line stroke="#000" y2="-300" x1="0.5" x2="0.5" style="stroke: #ccc; fill: none;"></line></g><g class="tick" opacity="1" transform="translate(201.98904655215335,0)"><line stroke="#000" y2="-300" x1="0.5" x2="0.5" style="stroke: #ccc; fill: none;"></line></g><g class="tick" opacity="1" transform="translate(239.24321633059498,0)"><line stroke="#000" y2="-300" x1="0.5" x2="0.5" style="stroke: #ccc; fill: none;"></line></g><g class="tick" opacity="1" transform="translate(276.4973861090366,0)"><line stroke="#000" y2="-300" x1="0.5" x2="0.5" style="stroke: #ccc; fill: none;"></line></g><g class="tick" opacity="1" transform="translate(313.8536221060493,0)"><line stroke="#000" y2="-300" x1="0.5" x2="0.5" style="stroke: #ccc; fill: none;"></line></g><g class="tick" opacity="1" transform="translate(351.1077918844909,0)"><line stroke="#000" y2="-300" x1="0.5" x2="0.5" style="stroke: #ccc; fill: none;"></line></g><g class="tick" opacity="1" transform="translate(388.3619616629326,0)"><line stroke="#000" y2="-300" x1="0.5" x2="0.5" style="stroke: #ccc; fill: none;"></line></g></g><text x="205" y="360" class="axis-label x-axis-label" style="text-anchor: middle; font-weight: bold;">Ano</text><g fill="none" font-size="10" font-family="sans-serif" text-anchor="end"><path class="domain" stroke="#000" d="M-6,300.5H0.5V0.5H-6"></path><g class="tick" opacity="1" transform="translate(0,300)"><line stroke="#000" x2="-6" y1="0.5" y2="0.5"></line><text fill="#000" x="-9" y="0.5" dy="0.32em" style="font-size: 12px;">0.00%</text></g><g class="tick" opacity="1" transform="translate(0,262.5)"><line stroke="#000" x2="-6" y1="0.5" y2="0.5"></line><text fill="#000" x="-9" y="0.5" dy="0.32em" style="font-size: 12px;">2.00%</text></g><g class="tick" opacity="1" transform="translate(0,225)"><line stroke="#000" x2="-6" y1="0.5" y2="0.5"></line><text fill="#000" x="-9" y="0.5" dy="0.32em" style="font-size: 12px;">4.00%</text></g><g class="tick" opacity="1" transform="translate(0,187.5)"><line stroke="#000" x2="-6" y1="0.5" y2="0.5"></line><text fill="#000" x="-9" y="0.5" dy="0.32em" style="font-size: 12px;">6.00%</text></g><g class="tick" opacity="1" transform="translate(0,150)"><line stroke="#000" x2="-6" y1="0.5" y2="0.5"></line><text fill="#000" x="-9" y="0.5" dy="0.32em" style="font-size: 12px;">8.00%</text></g><g class="tick" opacity="1" transform="translate(0,112.5)"><line stroke="#000" x2="-6" y1="0.5" y2="0.5"></line><text fill="#000" x="-9" y="0.5" dy="0.32em" style="font-size: 12px;">10.00%</text></g><g class="tick" opacity="1" transform="translate(0,75)"><line stroke="#000" x2="-6" y1="0.5" y2="0.5"></line><text fill="#000" x="-9" y="0.5" dy="0.32em" style="font-size: 12px;">12.00%</text></g><g class="tick" opacity="1" transform="translate(0,37.49999999999994)"><line stroke="#000" x2="-6" y1="0.5" y2="0.5"></line><text fill="#000" x="-9" y="0.5" dy="0.32em" style="font-size: 12px;">14.00%</text></g><g class="tick" opacity="1" transform="translate(0,0)"><line stroke="#000" x2="-6" y1="0.5" y2="0.5"></line><text fill="#000" x="-9" y="0.5" dy="0.32em" style="font-size: 12px;">16.00%</text></g></g><g class="grid-lines" fill="none" font-size="10" font-family="sans-serif" text-anchor="end"><path class="domain" stroke="#000" d="M410,300.5H0.5V0.5H410"></path><g class="tick" opacity="1" transform="translate(0,300)"><line stroke="#000" x2="410" y1="0.5" y2="0.5" style="stroke: #ccc; fill: none;"></line></g><g class="tick" opacity="1" transform="translate(0,262.5)"><line stroke="#000" x2="410" y1="0.5" y2="0.5" style="stroke: #ccc; fill: none;"></line></g><g class="tick" opacity="1" transform="translate(0,225)"><line stroke="#000" x2="410" y1="0.5" y2="0.5" style="stroke: #ccc; fill: none;"></line></g><g class="tick" opacity="1" transform="translate(0,187.5)"><line stroke="#000" x2="410" y1="0.5" y2="0.5" style="stroke: #ccc; fill: none;"></line></g><g class="tick" opacity="1" transform="translate(0,150)"><line stroke="#000" x2="410" y1="0.5" y2="0.5" style="stroke: #ccc; fill: none;"></line></g><g class="tick" opacity="1" transform="translate(0,112.5)"><line stroke="#000" x2="410" y1="0.5" y2="0.5" style="stroke: #ccc; fill: none;"></line></g><g class="tick" opacity="1" transform="translate(0,75)"><line stroke="#000" x2="410" y1="0.5" y2="0.5" style="stroke: #ccc; fill: none;"></line></g><g class="tick" opacity="1" transform="translate(0,37.49999999999994)"><line stroke="#000" x2="410" y1="0.5" y2="0.5" style="stroke: #ccc; fill: none;"></line></g><g class="tick" opacity="1" transform="translate(0,0)"><line stroke="#000" x2="410" y1="0.5" y2="0.5" style="stroke: #ccc; fill: none;"></line></g></g><g class="lines"><path class="line" d="M3.164052775703261,226.92707959520624L6.22603933283545,233.70753476788124L9.39009210853871,232.3799856699375L12.4520786656709,230.9152811429625L15.61613144137416,224.82845161700624L18.78018421707742,232.10186513630623L21.638038337067464,229.24702806690001L24.80209111277072,231.924549709275L27.864077669902912,226.50797997183753L31.028130445606177,230.02033825734375L34.09011700273837,232.12907342278126L37.25416977844162,234.0675850591875L40.41822255414488,233.10730321635L43.48020911127708,226.01559465009376L46.64426188698033,223.37007812090627L49.70624844411252,220.42997838099376L52.87030121981579,217.97951728929377L56.03435399551905,221.32189333155L58.892208115509085,225.15892891543126L62.056260891212354,231.5118406240125L65.11824744834453,227.00791745713127L68.28230022404779,225.32467532469374L71.34428678117997,219.4068343004625L74.50833955688324,226.14147681525L77.67239233258651,230.55669662664374L80.7343788897187,221.13657844991252L83.89843166542197,229.21925712226874L86.96041822255415,232.7456246751L90.12447099825741,231.6303531179625L93.28852377396066,231.73680847730625L96.14637789395071,230.16531382869374L99.31043066965397,234.44329638675L102.37241722678615,234.06314406046874L105.53647000248942,234.3075892767375L108.59845655962161,231.613994030325L111.76250933532488,232.90786152686252L114.92656211102813,235.366963054275L117.98854866816032,232.90060332864374L121.15260144386359,233.2834939185375L124.21458800099578,234.46174710963749L127.37864077669902,232.0775717128875L130.54269355240228,232.0371783033L133.5026138909634,229.32394146255L136.66666666666666,228.53271979696876L139.72865322379886,228.8333123579625L142.8927059995021,224.31530858741252L145.9546925566343,224.3368611780375L149.11874533233757,222.08810933812498L152.28279810804082,225.22649178045L155.34478466517302,223.00319275419375L158.50883744087628,218.713212908475L161.57082399800848,219.95987129225625L164.73487677371173,221.4977567392875L167.898929549415,217.5507977414625L170.75678366940502,217.518088232775L173.9208364451083,213.08820196314377L176.98282300224048,211.87192472075625L180.14687577794373,209.807974459575L183.2088623350759,208.413416748075L186.3729151107792,212.33783379395624L189.53696788648244,209.69394209570623L192.59895444361464,203.22914580481876L195.7630072193179,198.910055543625L198.82499377645007,203.96934253760622L201.98904655215335,202.20740439555L205.1530993278566,200.99262793636876L208.01095344784667,196.843030422225L211.17500622354993,196.03391852998124L214.23699278068207,201.27730522509376L217.40104555638536,197.01539177962502L220.46303211351753,194.62843045695L223.6270848892208,195.269281428375L226.79113766492407,200.6757487133625L229.85312422205627,195.6998372068875L233.01717699775952,191.87616805636873L236.07916355489172,190.49582795368127L239.24321633059498,190.07896859313752L242.40726910629826,185.76415941573748L245.26512322628827,184.622531602875L248.42917600199155,186.07750292971878L251.49116255912372,186.02814179926872L254.655215334827,181.39683724899376L257.7172018919592,181.02257520369375L260.8812546676624,183.17250314938124L264.0453074433657,183.55100729401875L267.10729400049786,173.39082345727502L270.27134677620114,169.62172014943124L273.3333333333333,172.46907944851876L276.4973861090366,171.16616647102498L279.6614388847398,167.0488323283125L282.621359223301,167.97891246883125L285.7854119990042,168.65683253580002L288.84739855613645,168.90245518441876L292.0114513318397,167.41340699938124L295.0734378889719,162.69447710581875L298.23749066467514,165.47182915425L301.4015434403784,163.61337516125624L304.4635299975106,154.0318694934L307.6275827732138,146.55695068809374L310.68956933034605,147.659011696425L313.8536221060493,146.87233134075L317.01767488175255,140.08838855345627L319.87552900174256,138.93827511834374L323.03958177744585,134.0481796062L326.101568334578,135.7415448514125L329.2656211102813,129.58970596535625L332.3276076674135,121.5864763066875L335.49166044311676,124.08447348718124L338.65571321882,119.3218429335L341.7176997759522,110.92725906823125L344.88175255165544,109.50636914227499L347.94373910878767,105.0325832047875L351.1077918844909,107.9220057634125L354.2718446601942,97.53688993516874L357.12969878018424,103.3707047175375L360.29375155588747,101.84107326502499L363.35573811301964,100.64985398566876L366.5197908887229,93.2762580914625L369.5817774458551,86.62898671569377L372.7458302215584,86.6822103350625L375.90988299726166,91.76652087952502L378.97186955439383,92.91114874432498L382.1359223300971,79.90118737565626L385.1979088872293,81.34045906224375L388.3619616629326,91.9491129239625L391.5260144386358,80.30906744535002L394.38386855862586,72.44631963667499L397.5479213343291,63.98403105292502L400.6099078914613,69.72567032893124L403.77396066716454,63.1829462357625L406.8359472242968,58.37328350868751L410,57.29830640381249" data-legend="python" style="stroke: rgb(31, 119, 180); fill: none;"></path><path class="line" d="M3.164052775703261,213.87353764445623L6.22603933283545,205.94513249844374L9.39009210853871,213.5717697635625L12.4520786656709,201.93416325508124L15.61613144137416,205.64838935129998L18.78018421707742,197.88378766141875L21.638038337067464,206.95752971934377L24.80209111277072,206.92809530563125L27.864077669902912,194.82279768425627L31.028130445606177,195.9002354956125L34.09011700273837,197.98935541100627L37.25416977844162,192.63590976331875L40.41822255414488,199.89003940256248L43.48020911127708,193.75797769021875L46.64426188698033,190.4865516699L49.70624844411252,184.69853471055L52.87030121981579,190.03708849696875L56.03435399551905,189.0836760838875L58.892208115509085,192.21729917165626L62.056260891212354,186.73257076231874L65.11824744834453,183.23444577800626L68.28230022404779,182.846320346325L71.34428678117997,180.10216733621252L74.50833955688324,181.58954198835L77.67239233258651,176.85675085033125L80.7343788897187,178.36720226844375L83.89843166542197,177.04652001442503L86.96041822255415,165.8702997747375L90.12447099825741,172.0182193839375L93.28852377396066,173.08019192055002L96.14637789395071,173.9890880980125L99.31043066965397,164.71836057361875L102.37241722678615,163.21649392156874L105.53647000248942,154.377731676375L108.59845655962161,148.72524617475003L111.76250933532488,143.917351985175L114.92656211102813,148.98171787423124L117.98854866816032,151.07477141424377L121.15260144386359,150.28712998243125L124.21458800099578,149.17545158994378L127.37864077669902,144.87051365634375L130.54269355240228,148.61183603004375L133.5026138909634,149.72449025120625L136.66666666666666,144.49610818400626L139.72865322379886,139.03863664966875L142.8927059995021,138.41454121485L145.9546925566343,136.65136841514374L149.11874533233757,134.635987166625L152.28279810804082,141.08678211378748L155.34478466517302,144.04013652699376L158.50883744087628,143.04597117922498L161.57082399800848,136.8962201346375L164.73487677371173,135.224896391775L167.898929549415,132.11492139138753L170.75678366940502,134.069465688225L173.9208364451083,131.46128632948125L176.98282300224048,130.242340983375L180.14687577794373,126.5465313241875L183.2088623350759,120.82865160609376L186.3729151107792,113.84991814678125L189.53696788648244,98.53672935819375L192.59895444361464,98.3999740185375L195.7630072193179,102.55008540821251L198.82499377645007,94.94995930426876L201.98904655215335,89.74146398133749L205.1530993278566,88.07307312620628L208.01095344784667,94.72923131527497L211.17500622354993,92.53835871804375L214.23699278068207,88.5452284737375L217.40104555638536,87.87284625376876L220.46303211351753,85.99729389129377L223.6270848892208,87.1313844577875L226.79113766492407,94.40409202554375L229.85312422205627,93.8350767205875L233.01717699775952,96.66834387579377L236.07916355489172,93.77035438306876L239.24321633059498,89.51363893537498L242.40726910629826,90.653120334975L245.26512322628827,95.85314552606249L248.42917600199155,91.98999144839999L251.49116255912372,74.67737321617497L254.655215334827,72.84394250514373L257.7172018919592,68.20744269037499L260.8812546676624,69.56690498818128L264.0453074433657,72.46048611659998L267.10729400049786,78.84749874924375L270.27134677620114,74.63333745894374L273.3333333333333,69.04441394870625L276.4973861090366,65.19413497531878L279.6614388847398,74.49939805246873L282.621359223301,74.18084200781249L285.7854119990042,74.7719597179875L288.84739855613645,70.38301300740002L292.0114513318397,72.57588636253126L295.0734378889719,62.66550789838129L298.23749066467514,63.75338265976876L301.4015434403784,74.41509323326878L304.4635299975106,79.09037720264999L307.6275827732138,78.18899739920622L310.68956933034605,68.66868015331875L313.8536221060493,70.55935098208127L317.01767488175255,70.942370778075L319.87552900174256,77.25645557486249L323.03958177744585,74.68613414141251L326.101568334578,72.64145854685626L329.2656211102813,70.61699305829998L332.3276076674135,72.38161731373125L335.49166044311676,71.72461030563753L338.65571321882,77.8157997653625L341.7176997759522,78.45204434139376L344.88175255165544,82.35041895200624L347.94373910878767,78.54575830320002L351.1077918844909,75.80894770876876L354.2718446601942,86.47730710050001L357.12969878018424,89.92792661619379L360.29375155588747,90.16690002106873L363.35573811301964,95.36584706349376L366.5197908887229,88.35775997077502L369.5817774458551,87.77786200231876L372.7458302215584,85.13366707751248L375.90988299726166,91.03009605976874L378.97186955439383,98.99629173838125L382.1359223300971,100.11978166674373L385.1979088872293,100.30595356627498L388.3619616629326,101.94186671655001L391.5260144386358,101.372724515475L394.38386855862586,101.87310203973749L397.5479213343291,105.74078326818753L400.6099078914613,104.48385946441877L403.77396066716454,99.18917894896876L406.8359472242968,101.63183275200001L410,94.98267491848125" data-legend="javascript" style="stroke: rgb(255, 127, 14); fill: none;"></path><path class="line" d="M3.164052775703261,146.85638412403122L6.22603933283545,150.5500588113375L9.39009210853871,156.8485789348125L12.4520786656709,169.6632968502L15.61613144137416,162.7612936018875L18.78018421707742,170.12195121952502L21.638038337067464,166.8179351847375L24.80209111277072,163.93773932776875L27.864077669902912,166.3648098889125L31.028130445606177,158.368122457725L34.09011700273837,167.7596563852125L37.25416977844162,173.22022928994375L40.41822255414488,170.22358654816875L43.48020911127708,169.512736555875L46.64426188698033,164.18956115975627L49.70624844411252,165.331491712725L52.87030121981579,143.2282679335875L56.03435399551905,149.00714719169997L58.892208115509085,139.15671354268125L62.056260891212354,153.3365833065375L65.11824744834453,148.281001974525L68.28230022404779,154.8092532467625L71.34428678117997,159.736894311375L74.50833955688324,160.482877847775L77.67239233258651,154.48947567328125L80.7343788897187,151.22282608696875L83.89843166542197,148.32311575910623L86.96041822255415,146.05137757755L90.12447099825741,145.88655146506878L93.28852377396066,143.89880772988124L96.14637789395071,141.654773585475L99.31043066965397,144.71867368025625L102.37241722678615,139.39559126617502L105.53647000248942,149.78927068018126L108.59845655962161,147.646837162725L111.76250933532488,147.654394575825L114.92656211102813,146.59741174400625L117.98854866816032,141.4232355343875L121.15260144386359,133.59512382766877L124.21458800099578,133.1425658388375L127.37864077669902,135.911765715075L130.54269355240228,133.465491628875L133.5026138909634,125.51978762326877L136.66666666666666,124.47774837810002L139.72865322379886,129.55807342370625L142.8927059995021,140.27200957121252L145.9546925566343,137.70480578128124L149.11874533233757,136.9415431147875L152.28279810804082,134.50205867216252L155.34478466517302,130.28891753611873L158.50883744087628,126.61863202760625L161.57082399800848,126.97962127378125L164.73487677371173,136.032850461975L167.898929549415,131.50787381180626L170.75678366940502,127.54953855673125L173.9208364451083,121.80684136200003L176.98282300224048,127.06604891715L180.14687577794373,134.06745294603752L183.2088623350759,138.12751613431874L186.3729151107792,133.48809167563124L189.53696788648244,115.29897950578126L192.59895444361464,108.60988270445625L195.7630072193179,99.8987545108125L198.82499377645007,101.54040936907498L201.98904655215335,113.89010635040626L205.1530993278566,106.8614858768625L208.01095344784667,100.853361407025L211.17500622354993,97.90614661327501L214.23699278068207,108.09689999152499L217.40104555638536,115.65249626234998L220.46303211351753,115.48107974300623L223.6270848892208,118.75640275136249L226.79113766492407,110.31443859260628L229.85312422205627,104.73485504486248L233.01717699775952,98.03856382979998L236.07916355489172,101.23764284201246L239.24321633059498,111.94926629028751L242.40726910629826,111.95246195113126L245.26512322628827,103.52323166296875L248.42917600199155,102.88735628544376L251.49116255912372,111.44346812325L254.655215334827,120.49521320568749L257.7172018919592,119.32274388963751L260.8812546676624,122.11182509338127L264.0453074433657,119.9363324803125L267.10729400049786,112.10358981532502L270.27134677620114,111.39452720645625L273.3333333333333,118.59797758951873L276.4973861090366,126.31467474363751L279.6614388847398,120.88398393386248L282.621359223301,113.03857584493124L285.7854119990042,112.50765235846876L288.84739855613645,129.4469739534375L292.0114513318397,136.4070647465625L295.0734378889719,139.98773068861877L298.23749066467514,141.79321088428125L301.4015434403784,137.78732262226876L304.4635299975106,134.13494631058123L307.6275827732138,130.624881585975L310.68956933034605,138.18203242252503L313.8536221060493,143.6272416738L317.01767488175255,142.23203359741876L319.87552900174256,137.02856329758748L323.03958177744585,130.94331545983124L326.101568334578,133.88060305303125L329.2656211102813,144.55245781365L332.3276076674135,150.67495340806875L335.49166044311676,153.31155128990628L338.65571321882,150.68998268060625L341.7176997759522,143.81285048388747L344.88175255165544,140.48112482804999L347.94373910878767,143.43977641419374L351.1077918844909,153.94915275519375L354.2718446601942,150.8127622078875L357.12969878018424,151.15754222482502L360.29375155588747,142.46254971688123L363.35573811301964,147.3383927605875L366.5197908887229,154.67183911046249L369.5817774458551,159.47004870285L372.7458302215584,163.37083719808126L375.90988299726166,158.05723643480624L378.97186955439383,152.38423253686875L382.1359223300971,152.71640457781876L385.1979088872293,150.81054616668752L388.3619616629326,159.68508216264377L391.5260144386358,158.620376923125L394.38386855862586,157.6932896186625L397.5479213343291,160.65679366396876L400.6099078914613,160.02266976855L403.77396066716454,165.61304133673124L406.8359472242968,164.19295934694375L410,173.0150274236625" data-legend="java" style="stroke: rgb(44, 160, 44); fill: none;"></path><path class="line" d="M3.164052775703261,78.08978683700627L6.22603933283545,41.835605064693766L9.39009210853871,41.46166706473127L12.4520786656709,50.29242209041877L15.61613144137416,16.94516805388122L18.78018421707742,20.444763271162515L21.638038337067464,7.646870221481265L24.80209111277072,5.44958161963126L27.864077669902912,38.81728211548125L31.028130445606177,40.085099550431266L34.09011700273837,42.755765819043745L37.25416977844162,42.33774038461877L40.41822255414488,50.412352240462496L43.48020911127708,54.06168488818125L46.64426188698033,69.91362134956876L49.70624844411252,75.00200176156875L52.87030121981579,84.94834502386874L56.03435399551905,84.82570291957501L58.892208115509085,81.79782315547502L62.056260891212354,81.90837085880625L65.11824744834453,84.14524371830623L68.28230022404779,91.63284632036252L71.34428678117997,92.56559043793123L74.50833955688324,93.66977691470623L77.67239233258651,102.57644719762499L80.7343788897187,100.68525519849373L83.89843166542197,101.91128741435625L86.96041822255415,107.27993415354376L90.12447099825741,111.70172802405L93.28852377396066,113.38380489688126L96.14637789395071,113.50162043233124L99.31043066965397,117.47839564156874L102.37241722678615,111.87834164701874L105.53647000248942,114.64883482044377L108.59845655962161,120.40771297959373L111.76250933532488,123.4683946317L114.92656211102813,128.55004841975622L117.98854866816032,129.07738944716252L121.15260144386359,129.11301106389377L124.21458800099578,131.19481368909376L127.37864077669902,130.893580153725L130.54269355240228,136.67242140764998L133.5026138909634,136.7437424709L136.66666666666666,137.77028642840628L139.72865322379886,137.9975791944L142.8927059995021,137.20004267414998L145.9546925566343,136.66453638223126L149.11874533233757,140.90338925559374L152.28279810804082,139.4831748963188L155.34478466517302,140.08259080648125L158.50883744087628,144.30180637305L161.57082399800848,147.54789555440624L164.73487677371173,147.27291737956875L167.898929549415,146.3198347535625L170.75678366940502,145.66999501608748L173.9208364451083,147.43579685129998L176.98282300224048,147.75123011171252L180.14687577794373,147.9758448934875L183.2088623350759,148.86255201658125L186.3729151107792,146.86625358658125L189.53696788648244,143.70670128556876L192.59895444361464,145.01439806872503L195.7630072193179,144.39869229290625L198.82499377645007,145.1979019081875L201.98904655215335,147.32592647355L205.1530993278566,148.8169668920625L208.01095344784667,153.39857745121876L211.17500622354993,151.891305015825L214.23699278068207,151.44968491254374L217.40104555638536,155.01274478566876L220.46303211351753,154.4376526054125L223.6270848892208,156.05242938680627L226.79113766492407,160.07227403480627L229.85312422205627,162.94638218281875L233.01717699775952,165.6510566417625L236.07916355489172,165.1552232478375L239.24321633059498,166.33422012496874L242.40726910629826,167.64299181035625L245.26512322628827,168.066611139825L248.42917600199155,169.51865518006875L251.49116255912372,163.82478032773125L254.655215334827,163.74636656979376L257.7172018919592,163.43937304205625L260.8812546676624,162.09030432958124L264.0453074433657,162.83581164110623L267.10729400049786,170.31435764739376L270.27134677620114,168.61962172016248L273.3333333333333,166.73416757281876L276.4973861090366,171.04157899400624L279.6614388847398,172.07283032538749L282.621359223301,172.19791215521252L285.7854119990042,167.9489893785375L288.84739855613645,165.04635273665627L292.0114513318397,165.74815698710626L295.0734378889719,171.35328800505002L298.23749066467514,167.19428780141251L301.4015434403784,177.07062859155L304.4635299975106,176.07981139869375L307.6275827732138,173.84600148125625L310.68956933034605,174.95038636618125L313.8536221060493,174.30614859095624L317.01767488175255,175.34542487979377L319.87552900174256,177.60057815589374L323.03958177744585,182.18413463705625L326.101568334578,177.92626355251875L329.2656211102813,179.567836785375L332.3276076674135,181.6522926589125L335.49166044311676,182.69816554353753L338.65571321882,184.106654003025L341.7176997759522,185.69345526821252L344.88175255165544,189.6119557644L347.94373910878767,187.32074048966248L351.1077918844909,188.4518555257875L354.2718446601942,193.28797164539998L357.12969878018424,192.0755678509125L360.29375155588747,191.70316701153752L363.35573811301964,186.96281140715627L366.5197908887229,191.52386980580624L369.5817774458551,187.647103413L372.7458302215584,185.4792701676L375.90988299726166,190.78445469615002L378.97186955439383,193.73461697632501L382.1359223300971,196.41641095843124L385.1979088872293,195.52905569806876L388.3619616629326,192.38067132605624L391.5260144386358,194.30259112346252L394.38386855862586,198.1349600924625L397.5479213343291,190.51455185008126L400.6099078914613,190.6947817079625L403.77396066716454,197.25021786080626L406.8359472242968,196.98932086588124L410,196.99914764306249" data-legend="c#" style="stroke: rgb(214, 39, 40); fill: none;"></path><path class="line" d="M3.164052775703261,235.1360080384875L6.22603933283545,219.56687192971873L9.39009210853871,224.7671363745L12.4520786656709,224.80574818280624L15.61613144137416,224.11366668785624L18.78018421707742,217.25251076041874L21.638038337067464,216.39125931043125L24.80209111277072,214.19656786273126L27.864077669902912,213.232475355975L31.028130445606177,194.29458360095623L34.09011700273837,181.24046811292502L37.25416977844162,173.5669378698375L40.41822255414488,169.99450197013127L43.48020911127708,176.8487429935125L46.64426188698033,167.67944214335625L49.70624844411252,158.32532628714375L52.87030121981579,155.2876319386875L56.03435399551905,166.41157035939375L58.892208115509085,164.26025813910002L62.056260891212354,162.232128497925L65.11824744834453,154.99583801154375L68.28230022404779,161.3365800865875L71.34428678117997,156.91613351188124L74.50833955688324,147.3689196229875L77.67239233258651,155.10565405282497L80.7343788897187,166.25708884689377L83.89843166542197,161.27839884601875L86.96041822255415,153.68653612893752L90.12447099825741,148.28136739295624L93.28852377396066,147.44758954081877L96.14637789395071,148.270300002975L99.31043066965397,149.16087419375626L102.37241722678615,147.87105349623752L105.53647000248942,147.2778907933875L108.59845655962161,137.216018960175L111.76250933532488,142.76480613946876L114.92656211102813,150.687413798175L117.98854866816032,149.80143302855623L121.15260144386359,149.58304330305L124.21458800099578,148.30978396785002L127.37864077669902,148.73065639584377L130.54269355240228,148.73228409684373L133.5026138909634,146.308503993225L136.66666666666666,147.70714566733128L139.72865322379886,146.7147002865L142.8927059995021,147.48755972476874L145.9546925566343,143.73573470235L149.11874533233757,141.16839568640626L152.28279810804082,143.10193454634376L155.34478466517302,151.12865196309374L158.50883744087628,149.553480819975L161.57082399800848,145.27331903248128L164.73487677371173,145.45502072165627L167.898929549415,144.6322424823375L170.75678366940502,145.7451836320875L173.9208364451083,151.68549610336876L176.98282300224048,150.68060194663127L180.14687577794373,147.8105499127875L183.2088623350759,146.342888762175L186.3729151107792,140.56223485715626L189.53696788648244,137.0989409511L192.59895444361464,142.41625033155L195.7630072193179,140.0186936503875L198.82499377645007,134.79787779219376L201.98904655215335,131.1476232217875L205.1530993278566,132.9741951235125L208.01095344784667,132.55315373216249L211.17500622354993,127.500998658225L214.23699278068207,140.72540763558752L217.40104555638536,147.70593857994376L220.46303211351753,146.87419126170002L223.6270848892208,146.58550417095L226.79113766492407,147.32598081901872L229.85312422205627,150.33641023865624L233.01717699775952,151.420985480175L236.07916355489172,148.65492455630627L239.24321633059498,144.05659014579376L242.40726910629826,147.63722277403127L245.26512322628827,150.60135056775L248.42917600199155,149.8420327495125L251.49116255912372,150.72945227660625L254.655215334827,154.56612176325L257.7172018919592,150.32647651471873L260.8812546676624,150.6012829579875L264.0453074433657,155.32126872823125L267.10729400049786,157.89753990328126L270.27134677620114,157.6914746388375L273.3333333333333,148.06844679106874L276.4973861090366,146.79893242376247L279.6614388847398,149.18017941234376L282.621359223301,157.1607252199125L285.7854119990042,159.7322694854625L288.84739855613645,154.75016166478125L292.0114513318397,158.8623992677125L295.0734378889719,160.89455208493123L298.23749066467514,164.94264005180625L301.4015434403784,165.0206696376375L304.4635299975106,166.6153290198375L307.6275827732138,169.94910349816877L310.68956933034605,165.06642025230002L313.8536221060493,163.73825789925L317.01767488175255,163.5823073520375L319.87552900174256,166.79760050326877L323.03958177744585,167.12448745100625L326.101568334578,166.5684502939875L329.2656211102813,173.89595913991877L332.3276076674135,174.82090788509998L335.49166044311676,174.646892655375L338.65571321882,174.015308117775L341.7176997759522,178.30667486928752L344.88175255165544,180.243599592675L347.94373910878767,179.86240340913753L351.1077918844909,179.02276479931874L354.2718446601942,185.66832594658126L357.12969878018424,190.8743447874375L360.29375155588747,194.30517179428125L363.35573811301964,191.73982406173124L366.5197908887229,194.91298418251876L369.5817774458551,196.73150902993126L372.7458302215584,196.7598122053875L375.90988299726166,199.0099454796L378.97186955439383,205.00642547538752L382.1359223300971,209.87009634738752L385.1979088872293,211.18115220530623L388.3619616629326,208.827078609675L391.5260144386358,206.1557766531375L394.38386855862586,209.0087608503L397.5479213343291,211.0568575173375L400.6099078914613,212.6959194416625L403.77396066716454,216.443280415275L406.8359472242968,217.03389734690626L410,219.32719389268124" data-legend="php" style="stroke: rgb(148, 103, 189); fill: none;"></path><path class="line" d="M3.164052775703261,198.12854374507498L6.22603933283545,194.52881754654376L9.39009210853871,190.136135658L12.4520786656709,200.994235107375L15.61613144137416,198.3814092382125L18.78018421707742,209.07460545195L21.638038337067464,202.33315246880625L24.80209111277072,209.32137285493127L27.864077669902912,210.66538882805625L31.028130445606177,216.17159066581877L34.09011700273837,214.38809175511875L37.25416977844162,218.985761834325L40.41822255414488,216.04050215339998L43.48020911127708,212.12400799156876L46.64426188698033,213.58858071620625L49.70624844411252,216.97693970694377L52.87030121981579,215.83656410371876L56.03435399551905,204.00175308476247L58.892208115509085,211.90281256021876L62.056260891212354,206.03138066904376L65.11824744834453,212.05379612064377L68.28230022404779,204.28841991343126L71.34428678117997,216.524078758125L74.50833955688324,221.81949509782498L77.67239233258651,215.39870849011874L80.7343788897187,213.27977315690623L83.89843166542197,208.77208799135627L86.96041822255415,214.90317969157502L90.12447099825741,217.63711495117502L93.28852377396066,221.85898904173126L96.14637789395071,222.10031813992498L99.31043066965397,218.1617508923625L102.37241722678615,227.21183428419374L105.53647000248942,227.6609297266875L108.59845655962161,228.26720744128124L111.76250933532488,230.7424723621875L114.92656211102813,227.42538955895625L117.98854866816032,219.410598112275L121.15260144386359,222.63632949883126L124.21458800099578,221.06193370910626L127.37864077669902,226.54470045292499L130.54269355240228,222.76267715904373L133.5026138909634,226.45172444565L136.66666666666666,222.70367427545625L139.72865322379886,230.3463158596125L142.8927059995021,233.0739862985625L145.9546925566343,230.13076669171875L149.11874533233757,231.42958602463125L152.28279810804082,230.12246071873125L155.34478466517302,225.83358937708124L158.50883744087628,220.17201136595622L161.57082399800848,220.88911901769376L164.73487677371173,227.81880917075625L167.898929549415,225.636671501475L170.75678366940502,222.27645350336252L173.9208364451083,221.58760046726252L176.98282300224048,222.84865136660625L180.14687577794373,226.46734715724375L183.2088623350759,230.12698538173126L186.3729151107792,230.97484553505L189.53696788648244,225.57515753203126L192.59895444361464,218.5643068629L195.7630072193179,213.2908743311625L198.82499377645007,220.32677177223752L201.98904655215335,223.45504134676875L205.1530993278566,223.18445020010626L208.01095344784667,221.67228619801875L211.17500622354993,221.5477153773L214.23699278068207,227.515754373075L217.40104555638536,234.22725545943752L220.46303211351753,233.36347934694373L223.6270848892208,232.21087004244376L226.79113766492407,229.60262792835L229.85312422205627,225.4766894115375L233.01717699775952,225.7273397067375L236.07916355489172,226.25450446111876L239.24321633059498,230.19901650395624L242.40726910629826,227.50417809075L245.26512322628827,226.6597433815875L248.42917600199155,228.95432806513125L251.49116255912372,230.6676255964125L254.655215334827,234.55825488680625L257.7172018919592,235.271897127225L260.8812546676624,238.846083718275L264.0453074433657,237.23084337622498L267.10729400049786,228.63607998408753L270.27134677620114,224.89535982718127L273.3333333333333,228.1609613137125L276.4973861090366,236.38771069126875L279.6614388847398,234.208598793975L282.621359223301,233.998790304525L285.7854119990042,233.6731830750375L288.84739855613645,238.75952762083125L292.0114513318397,241.2463017147L295.0734378889719,241.42255849224375L298.23749066467514,247.74517019829375L301.4015434403784,243.13650756421876L304.4635299975106,235.37264248348126L307.6275827732138,234.11874128043752L310.68956933034605,238.81243565731876L313.8536221060493,239.325362937675L317.01767488175255,243.888205858875L319.87552900174256,241.36997483675626L323.03958177744585,237.6175764880875L326.101568334578,246.04280166136874L329.2656211102813,250.15943337661875L332.3276076674135,246.96494831514374L335.49166044311676,248.767527738075L338.65571321882,247.622772221925L341.7176997759522,241.73760144808125L344.88175255165544,243.376717345875L347.94373910878767,241.63040545683748L351.1077918844909,243.50785718323124L354.2718446601942,243.11157725844376L357.12969878018424,242.79994175889374L360.29375155588747,245.2649708203875L363.35573811301964,246.63040343225626L366.5197908887229,249.4569260284125L369.5817774458551,253.2395914267875L372.7458302215584,252.81707812918125L375.90988299726166,251.67056098096873L378.97186955439383,252.5746825379625L382.1359223300971,248.784636623625L385.1979088872293,251.88154849430626L388.3619616629326,253.66298707370623L391.5260144386358,254.6612865817125L394.38386855862586,250.85122678779373L397.5479213343291,248.49720501418125L400.6099078914613,251.582638523325L403.77396066716454,252.6152767779375L406.8359472242968,250.32845828128126L410,257.6137711236375" data-legend="c++" style="stroke: rgb(140, 86, 75); fill: none;"></path><path class="line" d="M3.164052775703261,299.19256441543126L6.22603933283545,300L9.39009210853871,299.8507284451875L12.4520786656709,299.843345308725L15.61613144137416,299.0469534278063L18.78018421707742,299.0315638450688L21.638038337067464,299.630049819975L24.80209111277072,298.936321089225L27.864077669902912,299.85330934126875L31.028130445606177,299.6654891886188L34.09011700273837,297.02371689129376L37.25416977844162,297.28411612426873L40.41822255414488,292.0393109136L43.48020911127708,296.20192574505L46.64426188698033,295.37959419075L49.70624844411252,295.9964768996812L52.87030121981579,296.05024314815626L56.03435399551905,294.85874182456877L58.892208115509085,294.97929108073123L62.056260891212354,293.9691219041625L65.11824744834453,294.95479886949374L68.28230022404779,293.97997835499376L71.34428678117997,292.7466150870562L74.50833955688324,291.62246009568753L77.67239233258651,292.72909512151875L80.7343788897187,293.6791115312063L83.89843166542197,293.45474215651876L86.96041822255415,293.96226823775623L90.12447099825741,294.130353117975L93.28852377396066,292.7216067316875L96.14637789395071,292.15799958375L99.31043066965397,290.68507733735623L102.37241722678615,292.0285850832L105.53647000248942,291.6161453403L108.59845655962161,291.5586604920563L111.76250933532488,289.76678991534374L114.92656211102813,288.775420371525L117.98854866816032,288.53995452890626L121.15260144386359,289.55890973038123L124.21458800099578,288.92666833389376L127.37864077669902,288.9020896239375L130.54269355240228,287.7444092022375L133.5026138909634,287.576964261825L136.66666666666666,287.7344153790375L139.72865322379886,287.75716432606873L142.8927059995021,286.0689873273187L145.9546925566343,285.19920500595L149.11874533233757,285.53064887709377L152.28279810804082,284.95731282735L155.34478466517302,284.1197216025375L158.50883744087628,282.90034503755624L161.57082399800848,283.09323914491875L164.73487677371173,282.0230219383312L167.898929549415,279.6760470356812L170.75678366940502,280.0642755254625L173.9208364451083,279.87386020888124L176.98282300224048,279.90967208994374L180.14687577794373,278.972117098125L183.2088623350759,279.04868243491876L186.3729151107792,278.7775704553875L189.53696788648244,280.583350401825L192.59895444361464,278.6566222996875L195.7630072193179,276.74252536794376L198.82499377645007,278.39734121124377L201.98904655215335,276.64344102148124L205.1530993278566,273.89724224315626L208.01095344784667,274.56822334880627L211.17500622354993,273.6219796990875L214.23699278068207,272.4369118602938L217.40104555638536,272.35821425945625L220.46303211351753,272.0457844339687L223.6270848892208,271.5306234450562L226.79113766492407,273.1674763840875L229.85312422205627,269.768539364775L233.01717699775952,269.43960250145625L236.07916355489172,271.4556876650063L239.24321633059498,269.41622226770625L242.40726910629826,266.73511202041874L245.26512322628827,264.65434532784377L248.42917600199155,266.96148607989375L251.49116255912372,265.21743237118125L254.655215334827,265.55908157551875L257.7172018919592,261.63228002893123L260.8812546676624,263.7199703847937L264.0453074433657,264.66790863894374L267.10729400049786,262.72937322136875L270.27134677620114,262.5004219361812L273.3333333333333,265.1980252714125L276.4973861090366,263.090959932675L279.6614388847398,263.90312373485625L282.621359223301,262.07567317314374L285.7854119990042,260.265128712675L288.84739855613645,262.144602516675L292.0114513318397,260.42221750005L295.0734378889719,259.98628222824374L298.23749066467514,260.58059999668126L301.4015434403784,263.6522223525375L304.4635299975106,259.1844197412L307.6275827732138,261.60156048159376L310.68956933034605,263.2665306426375L313.8536221060493,262.553373185325L317.01767488175255,260.21868770145L319.87552900174256,256.74128272723124L323.03958177744585,254.84217996665626L326.101568334578,256.16672959708126L329.2656211102813,252.64617077715L332.3276076674135,251.70809104595625L335.49166044311676,251.18184602818124L338.65571321882,250.63737266514374L341.7176997759522,249.37948086980623L344.88175255165544,249.3282475479375L347.94373910878767,251.64403367623126L351.1077918844909,250.41781505641876L354.2718446601942,244.20890487526876L357.12969878018424,244.1649679674L360.29375155588747,244.74224664528748L363.35573811301964,246.48393842161875L366.5197908887229,244.73418902694374L369.5817774458551,247.53074721901874L372.7458302215584,250.5657344701125L375.90988299726166,250.9341361612125L378.97186955439383,250.23659907211874L382.1359223300971,247.6426503941625L385.1979088872293,252.99425677681876L388.3619616629326,250.3539830766L391.5260144386358,245.18319843474376L394.38386855862586,248.00932519955626L397.5479213343291,243.78171664781252L400.6099078914613,246.68995907555626L403.77396066716454,245.4519190694625L406.8359472242968,247.97526104236874L410,246.9824710939875" data-legend="r" style="stroke: rgb(227, 119, 194); fill: none;"></path></g></g><g transform="translate(20, 150)"><text transform="rotate(-90)" x="-50" y="0" dy="1em" class="axis-label y-axis-label" style="text-anchor: middle; font-weight: bold;">% de perguntas no Stack Overflow no mês</text></g><g class="legend" transform="translate(530, 30)" style="font-size: 12px;"><text class="legend-title" style="font-weight: bold;">Tag</text><g class="legend-items" transform="translate(0,20)"><text y="0em" x="1em">c#</text><text y="1em" x="1em">python</text><text y="2em" x="1em">javascript</text><text y="3em" x="1em">java</text><text y="4em" x="1em">php</text><text y="5em" x="1em">c++</text><text y="6em" x="1em">r</text><circle cy="-0.25em" cx="0" r="0.4em" style="fill: rgb(214, 39, 40);"></circle><circle cy="0.75em" cx="0" r="0.4em" style="fill: rgb(31, 119, 180);"></circle><circle cy="1.75em" cx="0" r="0.4em" style="fill: rgb(255, 127, 14);"></circle><circle cy="2.75em" cx="0" r="0.4em" style="fill: rgb(44, 160, 44);"></circle><circle cy="3.75em" cx="0" r="0.4em" style="fill: rgb(148, 103, 189);"></circle><circle cy="4.75em" cx="0" r="0.4em" style="fill: rgb(140, 86, 75);"></circle><circle cy="5.75em" cx="0" r="0.4em" style="fill: rgb(227, 119, 194);"></circle></g><rect class="legend-box"></rect></g></svg>
        